<svg viewBox="0 0 32 32" xml:space="preserve" xmlns="http://www.w3.org/2000/svg"><path d="M30 16c0-7.72-6.28-14-14-14S2 8.28 2 16c0 6.11 3.91 11.47 9.73 13.34.53.17 1.09-.13 1.26-.65.16-.53-.13-1.09-.65-1.26A11.953 11.953 0 0 1 4 16C4 9.38 9.38 4 16 4s12 5.38 12 12c0 6.28-4.85 11.45-11 11.96V10.58c1.11.93 2.78 2.89 4.17 4.97.3.47.92.59 1.38.28.46-.3.59-.93.28-1.38C21.54 12.51 18.29 8 16 8s-5.54 4.51-6.83 6.45a.99.99 0 0 0 .28 1.38c.45.31 1.08.19 1.38-.28 1.39-2.08 3.06-4.04 4.17-4.97V29c0 .55.45 1 1 1 .34 0 .67-.01 1-.04 7.26-.51 13-6.58 13-13.96z" fill="#ffffff" class="fill-000000"></path></svg>